<?xml version="1.0" encoding="UTF-8"?>
<svg id="Layer_2" data-name="Layer 2" xmlns="http://www.w3.org/2000/svg" viewBox="0 0 873.29 339.6">
  <defs>
    <style>
      .cls-1 {
        stroke: red;
      }

      .cls-1, .cls-2 {
        fill: none;
        stroke-miterlimit: 10;
      }

      .cls-2 {
        stroke: #ed1c24;
      }
    </style>
  </defs>
  <path class="cls-2" d="m16.44,79.19c1.12-2.35,2.98-5.66,6-9,13.86-15.32,35.17-12.43,38-12,4.56.69,7.17,1.93,9,4,3.05,3.46,3.02,8.25,3,11-.03,4.95-1.47,8.67-2,10-5.16,13.01-10.8,23.59-15,33-2.17,4.86-.86,2.46-6,15-4.71,11.48-6.72,15.71-11,26-3.75,9.03-6.07,15.07-8,20-8.91,22.74-25.44,62.22-26,62-.64-.25,16.77-52.71,43-97,1.62-2.74,9.69-16.28,22-33,9.65-13.11,15.62-19.64,26-31,7.51-8.22,13.14-13.79,22-18,9.62-4.57,16.02-4.18,18-4,2.59.24,10.32.96,16,7,4.56,4.84,5.4,10.57,6,15,1.88,13.98-3.31,25.32-6,31-7.09,14.99-17.42,23.62-24,29-3.06,2.5-13.11,10.41-28,16-6.31,2.37-14.69,4.77-15,4-.26-.67,5.39-3.88,11-6,3.58-1.35,14.24-5.23,28-3,6.21,1.01,14.53,2.35,22,9,11.18,9.96,11.86,24.17,12,27,.76,15.89-8.17,27.16-12,32-10.51,13.27-23.83,18.16-37,23-4.04,1.49-18.99,6.72-39,7-7.82.11-20.58-.48-32-7-6.86-3.91-8.59-7.31-9-10-.52-3.42.98-6.39,2-8"/>
  <path class="cls-1" d="m254.05,158.46c-3.6-6.31-20.73-2.5-23-2-11.26,2.5-18.78,7.93-27,14-8.09,5.97-16.17,11.94-23,23-5.72,9.26-7.46,17.09-9,24-1.63,7.34-1.64,11.74,0,16,.67,1.74,2.17,5.5,6,8,4.29,2.8,8.94,2.35,12,2,3.7-.42,8.71-1.75,16-7,7.98-5.74,12.56-11.75,18-19,5.26-7.01,8.43-12.45,14-22,.21-.36,4.66-8.04,10-19,7.03-14.45,6.82-16.57,6-18Z"/>
  <path class="cls-1" d="m256.05,160.46c-10.52,21.91-18.73,38.82-25,50-1.06,1.9-6.1,10.82-5,21,.28,2.6.98,5.44,3,8,.25.32,4.58,5.65,10,5,1.01-.12,1.71-.41,6-3,4.1-2.48,6.36-3.85,8-5,8.1-5.7,20.39-19.87,24-24,15.7-17.96,14.11-13.96,21-23,5.75-7.53,12.29-14.44,18-22,.99-1.31,5.11-6.79,12-9,4.56-1.46,6.56-.28,7,0,.89.57,2.36,1.93,3,7,.89,7-.87,12.6-1,13-7.29,22.41-10.94,33.62-14,40,0,0-3.44,7.16-3,14,.16,2.55,1,5,1,5,.62,1.8,1.08,3.16,2,4,2.59,2.37,8.23.13,11-1,8.03-3.28,13.18-8.21,14-9,10.47-10.19,15.7-15.29,22-23,8.55-10.47,14.45-19.22,19-26,3.82-5.69,6.87-10.54,9-14"/>
  <path class="cls-1" d="m401.05,164.46c-1.26,2.53-3.07,6.31-5,11-3.02,7.33-4.3,11.88-6,17-2.16,6.5-2.69,6.99-11,27-4.35,10.48-3.27,8.1-9,22-10.75,26.09-10.28,24.1-15,36-3.47,8.75-6.03,15.64-11,27-2.18,4.99-5.75,12.95-13,21-4.89,5.43-8.08,7.15-11,8-1.21.35-8.82,2.58-15-2-4.43-3.28-5.57-8.18-6-10-1.81-7.73,1.61-14.36,4-19,3.1-6.03,6.96-9.92,11-14,3.81-3.85,7.71-6.97,9-8,1.55-1.24,1.29-.96,8-6,5.01-3.77,5.45-4.14,8-6,1.85-1.35,1.86-1.33,7-5,6.27-4.48,6.07-4.38,7-5,4.82-3.22,8.73-4.94,11-6,4.94-2.32,10.96-6.21,23-14,11.46-7.41,17.18-11.12,22-15,9.31-7.5,15.26-14.24,23-23,11.52-13.05,17.29-19.57,21-25,1.97-2.88,6.31-6.92,15-15,.97-.9,3.04-2.77,6-3,2.46-.19,5.52.75,7,3,1.73,2.65.63,6.12,0,8-5.13,15.35-9,23-9,23-8.3,16.39-4.62,13.75-12,29-.26.54-2.84,5.87-3,13-.12,5.52,1.32,7.31,2,8,2.4,2.43,6.24,2.15,8,2,10.27-.88,18.91-10.55,22-14,28.68-32.02,22.54-23.31,30-33,6.58-8.55,14.93-19.97,24-34"/>
  <path class="cls-1" d="m542.05,161.46c-4.12,5.59-7.05,10.5-9,14-4.89,8.81-8.63,15.71-9,25-.17,4.31-.29,9.09,3,13,3.73,4.43,9.45,4.93,11,5,3.42.16,7.94-.71,17-8,5.89-4.74,8.22-7.78,19-20,8.44-9.57,8.5-9.38,16-18,4.84-5.56,8.91-10.34,12-14"/>
  <path class="cls-1" d="m601.05,158.46c-5.65,12.35-10.54,22.22-14,29-4.34,8.5-7.87,17.39-12,26,0,0-2.77,5.78-5,19-.28,1.64-.78,4.98,1,8,.35.59,1.27,2.12,3,3,3.12,1.59,6.77,0,9-1,4.61-2.08,6.93-4.79,13-11,2.64-2.7,5.34-5.32,8-8l16-16c2.67-2.67,5.33-5.33,8-8"/>
  <path class="cls-1" d="m622.05,203.46c8.34-1.48,15.12-3.41,20-5,14.12-4.6,21.6-9.4,24-11,6.95-4.63,10.91-8.86,13-14,1.67-4.09,1.31-6.69,1-8-.08-.34-1.17-4.68-5-7-4.88-2.96-10.87-.62-15,1-7.58,2.97-12.21,7.89-16,12-4.27,4.63-6.8,8.77-10,14-2.71,4.42-4.88,7.98-7,13-2.63,6.23-6.45,15.59-5,27,.58,4.53,1.06,8.36,4,12,5.7,7.07,15.6,7.19,19,7,5.44-.3,9.58-2.22,16-6,16.46-9.7,27.58-19.71,29-21,7.93-7.22,4.06-4.73,23-24,8.4-8.55,13.87-13.83,20-23,3.21-4.81,5.51-9.04,7-12"/>
  <path class="cls-1" d="m739.05,158.46c-4.96,13.72-9.61,24.55-13,32-4.71,10.37-7.24,21.65-12,32-.72,1.57-3.43,7.38-2,14,.39,1.81.98,4.37,3,6,4.15,3.35,11.46.45,15-1,3.93-1.61,10.32-4.89,24-20,2.4-2.65,9.2-10.28,17-21,3.81-5.24,6.54-9.49,12-18,3.18-4.95,5.52-8.76,8-14,1.35-2.86,2.34-5.29,3-7"/>
  <path class="cls-1" d="m793.05,161.46c-2.09,3.03-4.96,7.45-8,13-6.49,11.85-9.2,20.57-14,36,0,0-2.82,9.06-3,21-.04,2.58.05,5.53,2,8,2.9,3.67,8.07,3.91,10,4,9.38.44,16.68-5.6,22-10,6.48-5.36,10.31-10.78,14-16,3.39-4.79,5.35-8.35,9-15,4.78-8.71,6.56-12.95,14-28,2.56-5.17,4.66-9.36,6-12"/>
  <path class="cls-1" d="m845.05,161.46c-2.65,4.62-4.68,8.45-6,11-7.97,15.39-11.74,26.01-11,35,.13,1.54.45,3.83,2,6,3.13,4.38,8.86,4.9,10,5,1.82.16,5.83.21,13-4,4.1-2.41,10.84-7.16,17-16"/>
</svg>